G75*
%MOIN*%
%OFA0B0*%
%FSLAX24Y24*%
%IPPOS*%
%LPD*%
%AMOC8*
5,1,8,0,0,1.08239X$1,22.5*
%
%ADD10C,0.0000*%
%ADD11C,0.0554*%
%ADD12C,0.0515*%
%ADD13OC8,0.0520*%
%ADD14C,0.0705*%
%ADD15OC8,0.0630*%
%ADD16C,0.0180*%
D10*
X002390Y004393D02*
X002390Y023539D01*
X041730Y023539D01*
X041730Y004393D01*
X002390Y004393D01*
D11*
X003260Y004863D03*
X004260Y004863D03*
X005260Y004863D03*
X006260Y004863D03*
X007260Y004863D03*
X008260Y004863D03*
X009260Y004863D03*
X010260Y004883D03*
X011260Y004883D03*
X012260Y004883D03*
X013260Y004883D03*
X014260Y004883D03*
X015260Y004883D03*
X016260Y004883D03*
X017260Y004893D03*
X018260Y004893D03*
X019260Y004893D03*
X020260Y004893D03*
X021260Y004893D03*
X022260Y004893D03*
X023260Y004893D03*
X024260Y004893D03*
X025260Y004893D03*
X026260Y004893D03*
X027260Y004893D03*
X028260Y004893D03*
X029260Y004893D03*
X030260Y004893D03*
X031260Y004893D03*
X032260Y004893D03*
X033260Y004893D03*
X034260Y004893D03*
X035260Y004893D03*
X036260Y004893D03*
X037260Y004893D03*
X037260Y005893D03*
X036260Y005893D03*
X035260Y005893D03*
X034260Y005893D03*
X033260Y005893D03*
X032260Y005893D03*
X031260Y005893D03*
X030260Y005893D03*
X029260Y005893D03*
X028260Y005893D03*
X027260Y005893D03*
X026260Y005893D03*
X025260Y005893D03*
X024260Y005893D03*
X023260Y005893D03*
X022260Y005893D03*
X021260Y005893D03*
X020260Y005893D03*
X019260Y005893D03*
X018260Y005893D03*
X017260Y005893D03*
X016260Y005883D03*
X015260Y005883D03*
X014260Y005883D03*
X013260Y005883D03*
X012260Y005883D03*
X011260Y005883D03*
X010260Y005883D03*
X009260Y005863D03*
X008260Y005863D03*
X007260Y005863D03*
X006260Y005863D03*
X005260Y005863D03*
X004260Y005863D03*
X003260Y005863D03*
X006572Y009961D03*
X007572Y009961D03*
X008572Y009961D03*
X010916Y009961D03*
X011916Y009961D03*
X012916Y009961D03*
X015210Y010011D03*
X016210Y010011D03*
X017210Y010011D03*
X019503Y010011D03*
X020503Y010011D03*
X021503Y010011D03*
X023260Y009943D03*
X023260Y010943D03*
X023260Y011943D03*
X023260Y012943D03*
X023260Y013943D03*
X023260Y014943D03*
X023260Y015943D03*
X023260Y016943D03*
X023260Y017943D03*
X023260Y018943D03*
X024760Y018943D03*
X025760Y018943D03*
X026760Y018943D03*
X027760Y018943D03*
X028760Y018943D03*
X029760Y018943D03*
X031260Y018943D03*
X031260Y017943D03*
X031260Y016943D03*
X031260Y015943D03*
X031260Y014943D03*
X031260Y013943D03*
X031260Y012943D03*
X031260Y011943D03*
X031260Y010943D03*
X031260Y009943D03*
X033060Y010261D03*
X034060Y010261D03*
X035060Y010261D03*
X031260Y008943D03*
X031260Y007943D03*
X031260Y006943D03*
X029260Y007943D03*
X028260Y006943D03*
X027260Y006943D03*
X026260Y006943D03*
X023260Y006943D03*
X023260Y007943D03*
X023260Y008943D03*
X039730Y008823D03*
X040730Y008823D03*
X040730Y007823D03*
X039730Y007823D03*
X039730Y009823D03*
X040730Y009823D03*
X040730Y010823D03*
X039730Y010823D03*
X039730Y011823D03*
X040730Y011823D03*
X040730Y012823D03*
X039730Y012823D03*
X039730Y013823D03*
X040730Y013823D03*
X040750Y014853D03*
X039750Y014853D03*
X039750Y015853D03*
X040750Y015853D03*
X040750Y016853D03*
X039750Y016853D03*
X039750Y017853D03*
X040750Y017853D03*
X040750Y018853D03*
X039750Y018853D03*
X039750Y019853D03*
X040750Y019853D03*
X040750Y020853D03*
X039750Y020853D03*
X037260Y021893D03*
X036260Y021893D03*
X035260Y021893D03*
X034260Y021893D03*
X033260Y021893D03*
X032260Y021893D03*
X031260Y021893D03*
X030260Y021893D03*
X029260Y021893D03*
X028260Y021893D03*
X027260Y021893D03*
X026260Y021893D03*
X025260Y021893D03*
X024260Y021893D03*
X023260Y021893D03*
X022260Y021893D03*
X021260Y021893D03*
X020260Y021893D03*
X019260Y021893D03*
X018260Y021893D03*
X017260Y021893D03*
X016260Y021893D03*
X015260Y021893D03*
X014260Y021893D03*
X013260Y021893D03*
X012260Y021893D03*
X011260Y021893D03*
X010260Y021893D03*
X009260Y021903D03*
X008260Y021903D03*
X007260Y021903D03*
X006260Y021903D03*
X005260Y021903D03*
X004260Y021903D03*
X003260Y021903D03*
X003260Y022903D03*
X004260Y022903D03*
X005260Y022903D03*
X006260Y022903D03*
X007260Y022903D03*
X008260Y022903D03*
X009260Y022903D03*
X010260Y022893D03*
X011260Y022893D03*
X012260Y022893D03*
X013260Y022893D03*
X014260Y022893D03*
X015260Y022893D03*
X016260Y022893D03*
X017260Y022893D03*
X018260Y022893D03*
X019260Y022893D03*
X020260Y022893D03*
X021260Y022893D03*
X022260Y022893D03*
X023260Y022893D03*
X024260Y022893D03*
X025260Y022893D03*
X026260Y022893D03*
X027260Y022893D03*
X028260Y022893D03*
X029260Y022893D03*
X030260Y022893D03*
X031260Y022893D03*
X032260Y022893D03*
X033260Y022893D03*
X034260Y022893D03*
X035260Y022893D03*
X036260Y022893D03*
X037260Y022893D03*
D12*
X036771Y019843D03*
X038148Y019843D03*
X033760Y008932D03*
X033760Y007554D03*
D13*
X022060Y015743D03*
X018060Y015743D03*
X018160Y016843D03*
X014260Y015643D03*
X014160Y016843D03*
X010360Y016643D03*
X010260Y015643D03*
X006360Y016643D03*
D14*
X004404Y015912D02*
X003699Y015912D01*
X003699Y013943D02*
X004404Y013943D01*
X004404Y011975D02*
X003699Y011975D01*
X012491Y008338D02*
X012491Y007633D01*
X014460Y007633D02*
X014460Y008338D01*
X016428Y008338D02*
X016428Y007633D01*
X016078Y019549D02*
X016078Y020254D01*
X014110Y020254D02*
X014110Y019549D01*
X012141Y019549D02*
X012141Y020254D01*
D15*
X009260Y019743D03*
X007260Y019743D03*
X004960Y018543D03*
X002960Y018543D03*
X017860Y020043D03*
X019860Y020043D03*
X004960Y009343D03*
X002960Y009343D03*
X002960Y007543D03*
X004960Y007543D03*
X006960Y008043D03*
X008960Y008043D03*
X019060Y008243D03*
X021060Y008243D03*
D16*
X019260Y008393D02*
X019060Y008243D01*
X019260Y008393D02*
X017760Y006893D01*
X013760Y006893D01*
X012760Y007893D01*
X012491Y007985D01*
X013260Y009393D02*
X009260Y009393D01*
X008760Y009893D01*
X008572Y009961D01*
X007260Y010393D02*
X010260Y010393D01*
X010760Y009893D01*
X010916Y009961D01*
X013260Y009393D02*
X014760Y010893D01*
X023260Y010893D01*
X023260Y010943D01*
X022760Y011393D02*
X007260Y011393D01*
X005260Y009393D01*
X004960Y009343D01*
X004260Y009393D02*
X004260Y007393D01*
X004760Y007393D01*
X004960Y007543D01*
X004260Y009393D02*
X006760Y011893D01*
X022260Y011893D01*
X023260Y012893D01*
X023260Y012943D01*
X023260Y013893D02*
X023260Y013943D01*
X023260Y013893D02*
X022760Y014393D01*
X015260Y014393D01*
X014260Y015393D01*
X014260Y015643D01*
X014160Y016843D02*
X014260Y016893D01*
X017260Y016893D01*
X018260Y015893D01*
X018060Y015743D01*
X018160Y016843D02*
X018260Y016893D01*
X020260Y014893D01*
X023260Y014893D01*
X023260Y014943D01*
X023260Y015893D02*
X023260Y015943D01*
X023260Y015893D02*
X020760Y018393D01*
X004760Y018393D01*
X004960Y018543D01*
X009260Y019743D02*
X009260Y019893D01*
X010260Y020893D01*
X013260Y020893D01*
X013760Y020393D01*
X014110Y019901D01*
X023260Y011943D02*
X023260Y011893D01*
X022760Y011393D01*
X019503Y010011D02*
X019260Y009893D01*
X018760Y009393D01*
X033260Y009393D01*
X033760Y008893D01*
X033760Y008932D01*
X034060Y010261D02*
X034260Y010393D01*
X034260Y018893D01*
X037260Y018893D01*
X038260Y019893D01*
X038148Y019843D01*
X034260Y018893D02*
X031260Y018893D01*
X031260Y018943D01*
X018760Y009393D02*
X017760Y008393D01*
X016760Y008393D01*
X016428Y007985D01*
X007260Y010393D02*
X006760Y009893D01*
X006572Y009961D01*
X004052Y011975D02*
X003760Y011893D01*
X003260Y011893D01*
X003260Y009393D01*
X002960Y009343D01*
M02*
