G75*
%MOIN*%
%OFA0B0*%
%FSLAX24Y24*%
%IPPOS*%
%LPD*%
%AMOC8*
5,1,8,0,0,1.08239X$1,22.5*
%
%ADD10C,0.0000*%
%ADD11C,0.0040*%
D10*
X002390Y004393D02*
X002390Y023539D01*
X041730Y023539D01*
X041730Y004393D01*
X002390Y004393D01*
D11*
X009280Y006800D02*
X009366Y006713D01*
X009540Y006713D01*
X009626Y006800D01*
X009795Y006713D02*
X009795Y007234D01*
X009626Y007147D02*
X009540Y007234D01*
X009366Y007234D01*
X009280Y007147D01*
X009280Y006800D01*
X009795Y006974D02*
X009882Y007060D01*
X010055Y007060D01*
X010142Y006974D01*
X010142Y006713D01*
X010311Y006974D02*
X010658Y006974D01*
X010826Y007060D02*
X011000Y007234D01*
X011000Y006713D01*
X011173Y006713D02*
X010826Y006713D01*
X004158Y010400D02*
X004158Y010487D01*
X004071Y010574D01*
X003984Y010574D01*
X004071Y010574D02*
X004158Y010660D01*
X004158Y010747D01*
X004071Y010834D01*
X003898Y010834D01*
X003811Y010747D01*
X003642Y010574D02*
X003295Y010574D01*
X003126Y010747D02*
X003126Y010400D01*
X003040Y010313D01*
X002780Y010313D01*
X002780Y010834D01*
X003040Y010834D01*
X003126Y010747D01*
X003811Y010400D02*
X003898Y010313D01*
X004071Y010313D01*
X004158Y010400D01*
X004084Y017113D02*
X004084Y017634D01*
X003911Y017460D01*
X003742Y017374D02*
X003395Y017374D01*
X003226Y017547D02*
X003226Y017200D01*
X003140Y017113D01*
X002880Y017113D01*
X002880Y017634D01*
X003140Y017634D01*
X003226Y017547D01*
X003911Y017113D02*
X004258Y017113D01*
X009480Y020800D02*
X009566Y020713D01*
X009740Y020713D01*
X009826Y020800D01*
X009995Y020713D02*
X009995Y021234D01*
X009826Y021147D02*
X009740Y021234D01*
X009566Y021234D01*
X009480Y021147D01*
X009480Y020800D01*
X009995Y020974D02*
X010082Y021060D01*
X010255Y021060D01*
X010342Y020974D01*
X010342Y020713D01*
X010511Y020974D02*
X010858Y020974D01*
X011026Y020974D02*
X011287Y021234D01*
X011287Y020713D01*
X011373Y020974D02*
X011026Y020974D01*
X017380Y021147D02*
X017380Y020800D01*
X017466Y020713D01*
X017640Y020713D01*
X017726Y020800D01*
X017895Y020713D02*
X017895Y021234D01*
X017726Y021147D02*
X017640Y021234D01*
X017466Y021234D01*
X017380Y021147D01*
X017895Y020974D02*
X017982Y021060D01*
X018155Y021060D01*
X018242Y020974D01*
X018242Y020713D01*
X018411Y020974D02*
X018758Y020974D01*
X018926Y021147D02*
X019013Y021234D01*
X019187Y021234D01*
X019273Y021147D01*
X019273Y021060D01*
X018926Y020713D01*
X019273Y020713D01*
X018971Y007234D02*
X018711Y007234D01*
X018711Y006713D01*
X018971Y006713D01*
X019058Y006800D01*
X019058Y007147D01*
X018971Y007234D01*
X018542Y007234D02*
X018542Y006713D01*
X018195Y007234D01*
X018195Y006713D01*
X018026Y006800D02*
X018026Y006974D01*
X017853Y006974D01*
X018026Y007147D02*
X017940Y007234D01*
X017766Y007234D01*
X017680Y007147D01*
X017680Y006800D01*
X017766Y006713D01*
X017940Y006713D01*
X018026Y006800D01*
M02*
