%
M48
M72
T01C0.0315
T02C0.0320
T03C0.0354
T04C0.0470
%
T01
X33760Y7554
X33760Y8932
X36771Y19843
X38148Y19843
T02
X7260Y19743
X9260Y19743
X4960Y18543
X2960Y18543
X6360Y16643
X10360Y16643
X10260Y15643
X14160Y16843
X14260Y15643
X18060Y15743
X18160Y16843
X22060Y15743
X19860Y20043
X17860Y20043
X4960Y9343
X2960Y9343
X2960Y7543
X4960Y7543
X6960Y8043
X8960Y8043
X19060Y8243
X21060Y8243
T03
X3260Y4863
X4260Y4863
X5260Y4863
X6260Y4863
X7260Y4863
X8260Y4863
X9260Y4863
X10260Y4883
X11260Y4883
X12260Y4883
X13260Y4883
X14260Y4883
X15260Y4883
X16260Y4883
X17260Y4893
X18260Y4893
X19260Y4893
X20260Y4893
X21260Y4893
X22260Y4893
X23260Y4893
X24260Y4893
X25260Y4893
X26260Y4893
X27260Y4893
X28260Y4893
X29260Y4893
X30260Y4893
X31260Y4893
X32260Y4893
X33260Y4893
X34260Y4893
X35260Y4893
X36260Y4893
X37260Y4893
X37260Y5893
X36260Y5893
X35260Y5893
X34260Y5893
X33260Y5893
X32260Y5893
X31260Y5893
X30260Y5893
X29260Y5893
X28260Y5893
X27260Y5893
X26260Y5893
X25260Y5893
X24260Y5893
X23260Y5893
X22260Y5893
X21260Y5893
X20260Y5893
X19260Y5893
X18260Y5893
X17260Y5893
X16260Y5883
X15260Y5883
X14260Y5883
X13260Y5883
X12260Y5883
X11260Y5883
X10260Y5883
X9260Y5863
X8260Y5863
X7260Y5863
X6260Y5863
X5260Y5863
X4260Y5863
X3260Y5863
X6572Y9961
X7572Y9961
X8572Y9961
X10916Y9961
X11916Y9961
X12916Y9961
X15210Y10011
X16210Y10011
X17210Y10011
X19503Y10011
X20503Y10011
X21503Y10011
X23260Y9943
X23260Y10943
X23260Y11943
X23260Y12943
X23260Y13943
X23260Y14943
X23260Y15943
X23260Y16943
X23260Y17943
X23260Y18943
X24760Y18943
X25760Y18943
X26760Y18943
X27760Y18943
X28760Y18943
X29760Y18943
X31260Y18943
X31260Y17943
X31260Y16943
X31260Y15943
X31260Y14943
X31260Y13943
X31260Y12943
X31260Y11943
X31260Y10943
X31260Y9943
X33060Y10261
X34060Y10261
X35060Y10261
X31260Y8943
X31260Y7943
X31260Y6943
X29260Y7943
X28260Y6943
X27260Y6943
X26260Y6943
X23260Y6943
X23260Y7943
X23260Y8943
X39730Y8823
X40730Y8823
X40730Y7823
X39730Y7823
X39730Y9823
X40730Y9823
X40730Y10823
X39730Y10823
X39730Y11823
X40730Y11823
X40730Y12823
X39730Y12823
X39730Y13823
X40730Y13823
X40750Y14853
X39750Y14853
X39750Y15853
X40750Y15853
X40750Y16853
X39750Y16853
X39750Y17853
X40750Y17853
X40750Y18853
X39750Y18853
X39750Y19853
X40750Y19853
X40750Y20853
X39750Y20853
X37260Y21893
X36260Y21893
X35260Y21893
X34260Y21893
X33260Y21893
X32260Y21893
X31260Y21893
X30260Y21893
X29260Y21893
X28260Y21893
X27260Y21893
X26260Y21893
X25260Y21893
X24260Y21893
X23260Y21893
X22260Y21893
X21260Y21893
X20260Y21893
X19260Y21893
X18260Y21893
X17260Y21893
X16260Y21893
X15260Y21893
X14260Y21893
X13260Y21893
X12260Y21893
X11260Y21893
X10260Y21893
X9260Y21903
X8260Y21903
X7260Y21903
X6260Y21903
X5260Y21903
X4260Y21903
X3260Y21903
X3260Y22903
X4260Y22903
X5260Y22903
X6260Y22903
X7260Y22903
X8260Y22903
X9260Y22903
X10260Y22893
X11260Y22893
X12260Y22893
X13260Y22893
X14260Y22893
X15260Y22893
X16260Y22893
X17260Y22893
X18260Y22893
X19260Y22893
X20260Y22893
X21260Y22893
X22260Y22893
X23260Y22893
X24260Y22893
X25260Y22893
X26260Y22893
X27260Y22893
X28260Y22893
X29260Y22893
X30260Y22893
X31260Y22893
X32260Y22893
X33260Y22893
X34260Y22893
X35260Y22893
X36260Y22893
X37260Y22893
T04
X12141Y19901
X14110Y19901
X16078Y19901
X4052Y15912
X4052Y13943
X4052Y11975
X12491Y7985
X14460Y7985
X16428Y7985
M30
