%
M48
M72
T01C0.0315
T02C0.0320
T03C0.0354
T04C0.0470
%
T01
X37026Y12104
X37026Y13482
X37026Y18404
X37026Y19782
T02
X8726Y17393
X10026Y17293
X10026Y15693
X8726Y15393
X7226Y12393
X5226Y12393
X14026Y15693
X15326Y15093
X15526Y13693
X17526Y13693
X19326Y15093
X19326Y16593
X18226Y17993
X19226Y19093
X17226Y19093
X16226Y17993
X15126Y18693
X14026Y17293
X15326Y16593
X15126Y20693
T03
X676Y24993
X1676Y24993
X2676Y24993
X3676Y24993
X4686Y24983
X5686Y24983
X6686Y24983
X7686Y24983
X8686Y24983
X9686Y24983
X10686Y24983
X11686Y24983
X12686Y24983
X13686Y24983
X14686Y24983
X15686Y24983
X16686Y24983
X17686Y24983
X18676Y25003
X19676Y25003
X20676Y25003
X21676Y25003
X22676Y25003
X23676Y25003
X24676Y25003
X25676Y24983
X26676Y24983
X27676Y24983
X28676Y24983
X29676Y24983
X30676Y24983
X31676Y24983
X32656Y24993
X33656Y24993
X34656Y24993
X35656Y24993
X36656Y24993
X37656Y24993
X38656Y24993
X38656Y23993
X37656Y23993
X36656Y23993
X35656Y23993
X34656Y23993
X33656Y23993
X32656Y23993
X31676Y23983
X30676Y23983
X30676Y22983
X31676Y22983
X32656Y22993
X33656Y22993
X34656Y22993
X35656Y22993
X36656Y22993
X37656Y22993
X38656Y22993
X38656Y21993
X37656Y21993
X36656Y21993
X35656Y21993
X34656Y21993
X33656Y21993
X32656Y21993
X31676Y21983
X30676Y21983
X29676Y21983
X28676Y21983
X27676Y21983
X26676Y21983
X25676Y21983
X24676Y22003
X23676Y22003
X22676Y22003
X21676Y22003
X20676Y22003
X19676Y22003
X18676Y22003
X17686Y21983
X16686Y21983
X15686Y21983
X14686Y21983
X13686Y21983
X12686Y21983
X11686Y21983
X10686Y21983
X9686Y21983
X8686Y21983
X7686Y21983
X6686Y21983
X5686Y21983
X4686Y21983
X3676Y21993
X2676Y21993
X1676Y21993
X676Y21993
X676Y20993
X1676Y20993
X2676Y20993
X3676Y20993
X3676Y19993
X2676Y19993
X1676Y19993
X676Y19993
X676Y18993
X1676Y18993
X2676Y18993
X3676Y18993
X3656Y17983
X2656Y17983
X1656Y17983
X656Y17983
X656Y16983
X1656Y16983
X2656Y16983
X3656Y16983
X3656Y15983
X2656Y15983
X1656Y15983
X656Y15983
X656Y14983
X1656Y14983
X2656Y14983
X3656Y14983
X3656Y13983
X2656Y13983
X1656Y13983
X656Y13983
X656Y12983
X1656Y12983
X2656Y12983
X3656Y12983
X3656Y11983
X2656Y11983
X2686Y10983
X3686Y10983
X4686Y10983
X5686Y10983
X6686Y10983
X7676Y10993
X8676Y10993
X9676Y10993
X10676Y10993
X11676Y10993
X12676Y10993
X13676Y10993
X14676Y10993
X15676Y10993
X16676Y10993
X17676Y10993
X18676Y10993
X19676Y10993
X20676Y10993
X21676Y10993
X22676Y10993
X23676Y10993
X24676Y10993
X25676Y10993
X26676Y10993
X27676Y10993
X28676Y10993
X29676Y10993
X30676Y10993
X31676Y10993
X32676Y10993
X33676Y10993
X34676Y10993
X34676Y9993
X33676Y9993
X32676Y9993
X31676Y9993
X30676Y9993
X29676Y9993
X28676Y9993
X27676Y9993
X26676Y9993
X25676Y9993
X24676Y9993
X23676Y9993
X22676Y9993
X21676Y9993
X20676Y9993
X19676Y9993
X18676Y9993
X17676Y9993
X16676Y9993
X15676Y9993
X14676Y9993
X13676Y9993
X12676Y9993
X11676Y9993
X10676Y9993
X9676Y9993
X8676Y9993
X7676Y9993
X6686Y9983
X5686Y9983
X4686Y9983
X3686Y9983
X2686Y9983
X1686Y9983
X686Y9983
X686Y8983
X1686Y8983
X2686Y8983
X3686Y8983
X4686Y8983
X5686Y8983
X6686Y8983
X7676Y8993
X8676Y8993
X9676Y8993
X10676Y8993
X11676Y8993
X12676Y8993
X13676Y8993
X14676Y8993
X15676Y8993
X16676Y8993
X17676Y8993
X18676Y8993
X19676Y8993
X20676Y8993
X21676Y8993
X22676Y8993
X23676Y8993
X24676Y8993
X25676Y8993
X26676Y8993
X27676Y8993
X28676Y8993
X29676Y8993
X30676Y8993
X31676Y8993
X32676Y8993
X33676Y8993
X34676Y8993
X34676Y7993
X33676Y7993
X32676Y7993
X31676Y7993
X30676Y7993
X29676Y7993
X28676Y7993
X27676Y7993
X26676Y7993
X25676Y7993
X24676Y7993
X23676Y7993
X22676Y7993
X21676Y7993
X20676Y7993
X19676Y7993
X18676Y7993
X17676Y7993
X16676Y7993
X15676Y7993
X14676Y7993
X13676Y7993
X12676Y7993
X11676Y7993
X10676Y7993
X9676Y7993
X8676Y7993
X7676Y7993
X6686Y7983
X5686Y7983
X4686Y7983
X3686Y7983
X2686Y7983
X1686Y7983
X686Y7983
X686Y10983
X1686Y10983
X1656Y11983
X656Y11983
X16176Y12443
X17176Y12443
X18176Y12443
X20826Y12393
X21826Y12393
X22826Y12393
X23826Y12393
X24826Y12393
X25826Y12393
X26826Y12393
X27826Y12393
X28826Y12393
X29826Y12393
X30826Y12393
X31826Y12393
X32826Y12393
X34826Y12193
X34826Y13193
X34826Y14193
X32826Y15393
X32826Y16393
X32826Y17393
X31826Y18393
X31826Y20393
X30826Y20393
X29826Y20393
X28826Y20393
X27826Y20393
X26826Y20393
X25826Y20393
X24826Y20393
X23826Y20393
X22826Y20393
X21826Y20393
X20826Y20393
X20826Y18893
X20826Y17893
X20826Y16893
X20826Y15893
X20826Y14893
X20826Y13893
X18926Y20393
X17926Y20393
X16926Y20393
X16686Y22983
X15686Y22983
X14686Y22983
X14686Y23983
X15686Y23983
X16686Y23983
X17686Y23983
X18676Y24003
X19676Y24003
X20676Y24003
X21676Y24003
X22676Y24003
X23676Y24003
X24676Y24003
X25676Y23983
X26676Y23983
X27676Y23983
X28676Y23983
X29676Y23983
X29676Y22983
X28676Y22983
X27676Y22983
X26676Y22983
X25676Y22983
X24676Y23003
X23676Y23003
X22676Y23003
X21676Y23003
X20676Y23003
X19676Y23003
X18676Y23003
X17686Y22983
X13686Y22983
X12686Y22983
X11686Y22983
X11686Y23983
X12686Y23983
X13686Y23983
X10686Y23983
X9686Y23983
X8686Y23983
X8686Y22983
X9686Y22983
X10686Y22983
X7686Y22983
X6686Y22983
X5686Y22983
X5686Y23983
X6686Y23983
X7686Y23983
X4686Y23983
X3676Y23993
X2676Y23993
X1676Y23993
X676Y23993
X676Y22993
X1676Y22993
X2676Y22993
X3676Y22993
X4686Y22983
X32826Y20393
X34726Y20493
X34726Y19493
X34726Y18493
X34926Y16593
X35926Y16593
X36926Y16593
T04
X9407Y19751
X11376Y19751
X13344Y19751
X6318Y18162
X6318Y16193
X6318Y14225
X9457Y13035
X11426Y13035
X13394Y13035
M30
